# xmcd CD database file
#
# Track frame offsets:
#	150
#	3028
#	25208
#	47240
#	66201
#	93795
#	123316
#	154984
#	178900
#	204710
#	229623
#	265127
#	280047
#
# Disc length: 3923 seconds
#
# Revision: 6
# Processed by: cddbd v1.5.2PL0 Copyright (c) Steve Scherf et al.
# Submitted via: CDex 1.79
#
DISCID=aa0f510d
DTITLE=Bob Marley and The Wailers - Rastaman Vibration (Rastaman Vibration Tour, Live At Rocky, Hollywood, California, Mai 26. 1976) (Deluxe Edition) (2 of 2)
DYEAR=2002
DGENRE=Reggae
TTITLE0=Introduction
TTITLE1=Trenchtown Rock
TTITLE2=Burnin' and Lootin'
TTITLE3=Them Belly Full (But We Hugry)
TTITLE4=Rebel Music (3 O'Clock Roadblock)
TTITLE5=Shot The Sheriff
TTITLE6=Want More
TTITLE7=No Woman No Cry
TTITLE8=Lively Up Yourself
TTITLE9=Rock, Rock Reggae
TTITLE10=Rat Race
TTITLE11=Smile Jamaica (Pt 1) (Jamaica Sessions) (Recorded And Mixed Late 1976 In Kingston)
TTITLE12=Smile Jamaica (Pt 2) (Jamaica Sessions) (Recorded And Mixed Late 1976 In Kingston)
EXTD=YEAR: 2002
EXTT0=
EXTT1=
EXTT2=
EXTT3=
EXTT4=
EXTT5=
EXTT6=
EXTT7=
EXTT8=
EXTT9=
EXTT10=
EXTT11=
EXTT12=
PLAYORDER=
